<svg id="fill" height="512" viewBox="0 0 64 64" width="512" xmlns="http://www.w3.org/2000/svg"><path d="m48 29h6.5a6.5 6.5 0 0 0 6.5-6.5 1.5 1.5 0 0 0 -1.5-1.5h-11.5z" fill="#f89c5b"/><path d="m53.21 20a12 12 0 1 0 -21.6 7.175 21.7 21.7 0 0 0 -2.61-.175c-7 0-13.058 3.34-16.034 8.207a22.777 22.777 0 0 1 -3.466-.858l-.685-.228a2.3 2.3 0 0 0 -2.973 2.661 22.669 22.669 0 0 0 8.243 13.136 12.65 12.65 0 0 0 9.305 4.082h11.22a12.252 12.252 0 0 0 12.357-11.085q.033-.454.033-.915a13.656 13.656 0 0 0 -4.672-10.056 12 12 0 0 0 10.882-11.944z" fill="#ffd257"/><path d="m16.875 51.918a22.672 22.672 0 0 1 -8.242-13.136 2.3 2.3 0 0 1 2.973-2.661l.685.228a22.748 22.748 0 0 0 3.465.858c2.976-4.867 9.03-8.207 16.034-8.207a21.7 21.7 0 0 1 2.608.175 11.986 11.986 0 0 1 15.114-17.827 11.987 11.987 0 0 0 -17.9 15.827 21.7 21.7 0 0 0 -2.612-.175c-7 0-13.058 3.34-16.034 8.207a22.777 22.777 0 0 1 -3.466-.858l-.685-.228a2.3 2.3 0 0 0 -2.973 2.661 22.669 22.669 0 0 0 8.243 13.136 12.533 12.533 0 0 0 3.4 2.6c-.204-.194-.416-.389-.61-.6z" fill="#ffe8ae"/><path d="m53.21 20a11.992 11.992 0 0 0 -6.488-10.652 11.988 11.988 0 0 1 -7.184 20.6 13.656 13.656 0 0 1 4.672 10.052q0 .461-.033.915a12.252 12.252 0 0 1 -12.357 11.085h-11.22a12.629 12.629 0 0 1 -5.9-1.479 12.644 12.644 0 0 0 8.69 3.479h11.22a12.252 12.252 0 0 0 12.357-11.085q.033-.454.033-.915a13.656 13.656 0 0 0 -4.672-10.056 12 12 0 0 0 10.882-11.944z" fill="#f89c5b"/><g fill="#bbf9ff"><path d="m7 18a3 3 0 1 1 3-3 3 3 0 0 1 -3 3zm0-4a1 1 0 1 0 1 1 1 1 0 0 0 -1-1z"/><path d="m24 9a3 3 0 1 1 3-3 3 3 0 0 1 -3 3zm0-4a1 1 0 1 0 1 1 1 1 0 0 0 -1-1z"/><path d="m17 17h2v2h-2z"/><path d="m15 19h2v2h-2z"/><path d="m19 19h2v2h-2z"/><path d="m17 21h2v2h-2z"/><path d="m55 34h2v2h-2z"/><path d="m53 36h2v2h-2z"/><path d="m57 36h2v2h-2z"/><path d="m55 38h2v2h-2z"/><path d="m5 52a3 3 0 1 0 -3-3 3 3 0 0 0 3 3zm0-4a1 1 0 1 1 -1 1 1 1 0 0 1 1-1z"/><path d="m61 51a4 4 0 0 0 -8 0 3.953 3.953 0 0 0 .572 2.029c-.188-.018-.379-.029-.572-.029a6 6 0 0 0 -5.444 3.493 4.994 4.994 0 0 0 -8.556 3.507h2a3 3 0 0 1 6 0h2a5 5 0 0 0 -.1-1h.1a4 4 0 0 1 8 0h2a5.973 5.973 0 0 0 -1.579-4.043 3.991 3.991 0 0 0 3.579-3.957zm-4 2a2 2 0 1 1 2-2 2 2 0 0 1 -2 2z"/><path d="m14 55a3.982 3.982 0 0 0 -2.855 1.207 5 5 0 0 0 -9.145 2.793h2a3 3 0 0 1 6 0h2a2 2 0 0 1 4 0h2a4 4 0 0 0 -4-4z"/><path d="m32 57a3.993 3.993 0 0 0 -3.268 1.707 4.979 4.979 0 0 0 -8.732 3.293h2a3 3 0 0 1 6 0h2a5 5 0 0 0 -.1-1h.1a2 2 0 0 1 4 0h2a4 4 0 0 0 -4-4z"/></g><path d="m37.79 44a4 4 0 0 1 -4 4h-3a12 12 0 0 1 -12-12h7.21a8 8 0 0 0 8 8z" fill="#ffe8ae"/><path d="m55.039 19.909-.964-5.955-17.769 2.874a1 1 0 0 0 -.651.4l-1.655 2.296 1.621 1.17 1.413-1.958 7.489-1.211.644 3.981a2.967 2.967 0 0 0 3.4 2.455l4.013-.649a2.968 2.968 0 0 0 2.459-3.403z" fill="#aa889f"/><path d="m55.039 19.909-2.265.308a6.051 6.051 0 0 1 -6.774-4.957l-9.692 1.568a1 1 0 0 0 -.653.4l-1.655 2.296 1.621 1.17 1.413-1.958 7.489-1.211.644 3.981a2.967 2.967 0 0 0 3.4 2.455l4.013-.649a2.968 2.968 0 0 0 2.459-3.403z" fill="#895e7a"/><path d="m50.672 17.242 1.127-.226a.835.835 0 0 1 .982.655l.225 1.127a.835.835 0 0 1 -1.282.859l-1.352-.9a.835.835 0 0 1 .3-1.515z" fill="#fff"/><path d="m9.132 33.172a3.3 3.3 0 0 0 -4.267 3.819 23.7 23.7 0 0 0 8.541 13.664 13.64 13.64 0 0 0 9.985 4.345h11.218a13.241 13.241 0 0 0 13.355-12.011q.036-.489.036-.989a14.317 14.317 0 0 0 -3.636-9.394 13.032 13.032 0 0 0 5.089-2.606h5.047a7.508 7.508 0 0 0 7.5-7.5 2.5 2.5 0 0 0 -2.5-2.5h-3.461c-.008-.084 0-.167-.016-.25l-.8-4.969a1 1 0 0 0 -1.148-.827l-1.251.2a13 13 0 0 0 -24.614 5.846 12.846 12.846 0 0 0 1.482 6.013c-.234-.013-.464-.013-.692-.013-6.879 0-13.136 3.088-16.513 8.1a22.053 22.053 0 0 1 -2.67-.7zm46.192-10.472a3.99 3.99 0 0 0 .4-.7h3.776a.5.5 0 0 1 .5.5 5.506 5.506 0 0 1 -5.5 5.5h-3.064a12.87 12.87 0 0 0 2.09-3.914 3.935 3.935 0 0 0 1.798-1.386zm-1.275-2.635a1.968 1.968 0 0 1 -1.627 2.256l-4.014.649a1.966 1.966 0 0 1 -2.255-1.627l-.644-3.981 7.9-1.278zm-41.249 16.128a.987.987 0 0 0 1.016-.465c2.918-4.767 8.735-7.728 15.184-7.728a20.424 20.424 0 0 1 2.487.167 1 1 0 0 0 .921-1.591 10.9 10.9 0 0 1 -2.198-6.576 11 11 0 0 1 20.52-5.5l-6.53 1.051-7.9 1.277a1 1 0 0 0 -.652.4l-1.648 2.296 1.621 1.17 1.413-1.958 6.5-1.051.644 3.981a3.965 3.965 0 0 0 3.907 3.334 4.117 4.117 0 0 0 .643-.051l2.5-.405a11.068 11.068 0 0 1 -8.992 6.4 1 1 0 0 0 -.585 1.731 12.691 12.691 0 0 1 4.349 9.325c0 .282-.01.562-.03.842a11.236 11.236 0 0 1 -11.361 10.158h-11.218a11.636 11.636 0 0 1 -8.568-3.758 1.025 1.025 0 0 0 -.123-.114 21.706 21.706 0 0 1 -7.88-12.556 1.286 1.286 0 0 1 .4-1.239 1.273 1.273 0 0 1 1.28-.263l.687.228a23.786 23.786 0 0 0 3.613.895z"/><path d="m7 18a3 3 0 1 0 -3-3 3 3 0 0 0 3 3zm0-4a1 1 0 1 1 -1 1 1 1 0 0 1 1-1z"/><path d="m5 52a3 3 0 1 0 -3-3 3 3 0 0 0 3 3zm0-4a1 1 0 1 1 -1 1 1 1 0 0 1 1-1z"/><path d="m24 9a3 3 0 1 0 -3-3 3 3 0 0 0 3 3zm0-4a1 1 0 1 1 -1 1 1 1 0 0 1 1-1z"/><path d="m17 17h2v2h-2z"/><path d="m15 19h2v2h-2z"/><path d="m19 19h2v2h-2z"/><path d="m17 21h2v2h-2z"/><path d="m55 34h2v2h-2z"/><path d="m53 36h2v2h-2z"/><path d="m57 36h2v2h-2z"/><path d="m55 38h2v2h-2z"/><path d="m61 51a4 4 0 0 0 -8 0 3.953 3.953 0 0 0 .572 2.029c-.188-.018-.379-.029-.572-.029a6 6 0 0 0 -5.444 3.493 4.994 4.994 0 0 0 -8.556 3.507h2a3 3 0 0 1 6 0h2a5 5 0 0 0 -.1-1h.1a4 4 0 0 1 8 0h2a5.973 5.973 0 0 0 -1.579-4.043 3.991 3.991 0 0 0 3.579-3.957zm-4 2a2 2 0 1 1 2-2 2 2 0 0 1 -2 2z"/><path d="m7 56a3 3 0 0 1 3 3h2a2 2 0 0 1 4 0h2a3.994 3.994 0 0 0 -6.855-2.793 5 5 0 0 0 -9.145 2.793h2a3 3 0 0 1 3-3z"/><path d="m32 59a2 2 0 0 1 2 2h2a3.994 3.994 0 0 0 -7.268-2.293 4.979 4.979 0 0 0 -8.732 3.293h2a3 3 0 0 1 6 0h2a5 5 0 0 0 -.1-1h.1a2 2 0 0 1 2-2z"/><path d="m30.79 49h3a5.006 5.006 0 0 0 5-5h-2a3 3 0 0 1 -3 3h-3a11.015 11.015 0 0 1 -10.955-10h14.955v-2h-16a1 1 0 0 0 -1 1 13.015 13.015 0 0 0 13 13z"/></svg>